<svg xmlns="http://www.w3.org/2000/svg" viewBox="0 0 24 24"><path d="M15 12l-4-1.274L7 12v9a1 1 0 0 0 1 1h14a1 1 0 0 0 1-1v-4z" fill="#185c37"/><path d="M15 2H8a1 1 0 0 0-1 1v4l8 5 4 2.5 4-2.5V7z" fill="#21a366"/><path d="M22 2h-7v5h8V3a1 1 0 0 0-1-1z" fill="#33c481"/><path fill="#107c41" d="M7 7h8v5H7zm8 5h8v5h-8z"/><path d="M13 7H7v12h5.533A1.471 1.471 0 0 0 14 17.533V8a1.003 1.003 0 0 0-1-1z" opacity=".5"/><path d="M2.11 6h9.78A1.11 1.11 0 0 1 13 7.11V17a1 1 0 0 1-1 1H2.11A1.11 1.11 0 0 1 1 16.89V7.11A1.11 1.11 0 0 1 2.11 6z" fill="#107c41"/><path d="M3.725 15.666l2.372-3.676-2.173-3.657h1.749l1.186 2.337q.164.333.225.496H7.1q.117-.265.245-.516l1.268-2.317h1.606l-2.23 3.636 2.286 3.697H8.567L7.197 13.1a2.143 2.143 0 0 1-.164-.342h-.02a1.617 1.617 0 0 1-.159.332l-1.411 2.577z" fill="#fff"/></svg>